<mxfile host="app.diagrams.net" modified="2023-12-25T15:28:11.975Z" agent="Mozilla/5.0 (Windows NT 10.0; Win64; x64) AppleWebKit/537.36 (KHTML, like Gecko) Chrome/120.0.0.0 Safari/537.36" etag="jM0KpZGNV8pZOO3uYLq8" version="22.1.11" type="google">
  <diagram name="第 1 页" id="VkkBAeGisDVG9u2T1wAG">
    <mxGraphModel grid="1" page="1" gridSize="10" guides="1" tooltips="1" connect="1" arrows="1" fold="1" pageScale="1" pageWidth="827" pageHeight="1169" math="0" shadow="0">
      <root>
        <mxCell id="0" />
        <mxCell id="1" parent="0" />
        <mxCell id="1DU-fHJy8hMuyyBKDLKH-5" value="" style="edgeStyle=orthogonalEdgeStyle;rounded=0;orthogonalLoop=1;jettySize=auto;html=1;" edge="1" parent="1" source="1DU-fHJy8hMuyyBKDLKH-1" target="1DU-fHJy8hMuyyBKDLKH-3">
          <mxGeometry relative="1" as="geometry" />
        </mxCell>
        <mxCell id="1DU-fHJy8hMuyyBKDLKH-1" value="車主" style="shape=umlActor;verticalLabelPosition=bottom;verticalAlign=top;html=1;" vertex="1" parent="1">
          <mxGeometry x="190" y="230" width="30" height="60" as="geometry" />
        </mxCell>
        <mxCell id="1DU-fHJy8hMuyyBKDLKH-7" value="" style="edgeStyle=orthogonalEdgeStyle;rounded=0;orthogonalLoop=1;jettySize=auto;html=1;" edge="1" parent="1" source="1DU-fHJy8hMuyyBKDLKH-2" target="1DU-fHJy8hMuyyBKDLKH-3">
          <mxGeometry relative="1" as="geometry" />
        </mxCell>
        <mxCell id="1DU-fHJy8hMuyyBKDLKH-2" value="管理員" style="shape=umlActor;verticalLabelPosition=bottom;verticalAlign=top;html=1;" vertex="1" parent="1">
          <mxGeometry x="384" y="230" width="30" height="60" as="geometry" />
        </mxCell>
        <mxCell id="1DU-fHJy8hMuyyBKDLKH-3" value="入場停車" style="ellipse;whiteSpace=wrap;html=1;align=center;dashed=1;" vertex="1" parent="1">
          <mxGeometry x="250" y="240" width="100" height="40" as="geometry" />
        </mxCell>
      </root>
    </mxGraphModel>
  </diagram>
</mxfile>
